<mxfile host="app.diagrams.net" agent="Mozilla/5.0 (Windows NT 10.0; Win64; x64) AppleWebKit/537.36 (KHTML, like Gecko) Chrome/136.0.0.0 Safari/537.36 Edg/136.0.0.0" version="27.0.6" pages="3">
  <diagram name="第 1 页" id="kTlSV3RhlPkoa34mjc7b">
    <mxGraphModel dx="1628" dy="1116" grid="1" gridSize="10" guides="1" tooltips="1" connect="1" arrows="1" fold="1" page="1" pageScale="1" pageWidth="827" pageHeight="1169" math="0" shadow="0">
      <root>
        <mxCell id="0" />
        <mxCell id="1" parent="0" />
        <mxCell id="T2vWgiH1zTQjgsDbBocM-6" value="" style="edgeStyle=orthogonalEdgeStyle;rounded=0;orthogonalLoop=1;jettySize=auto;html=1;" parent="1" source="T2vWgiH1zTQjgsDbBocM-2" target="T2vWgiH1zTQjgsDbBocM-5" edge="1">
          <mxGeometry relative="1" as="geometry" />
        </mxCell>
        <mxCell id="T2vWgiH1zTQjgsDbBocM-2" value="" style="rounded=1;whiteSpace=wrap;html=1;" parent="1" vertex="1">
          <mxGeometry x="300" y="160" width="120" height="60" as="geometry" />
        </mxCell>
        <mxCell id="T2vWgiH1zTQjgsDbBocM-4" value="" style="edgeStyle=orthogonalEdgeStyle;rounded=0;orthogonalLoop=1;jettySize=auto;html=1;" parent="1" source="T2vWgiH1zTQjgsDbBocM-3" target="T2vWgiH1zTQjgsDbBocM-2" edge="1">
          <mxGeometry relative="1" as="geometry" />
        </mxCell>
        <mxCell id="T2vWgiH1zTQjgsDbBocM-3" value="" style="ellipse;whiteSpace=wrap;html=1;" parent="1" vertex="1">
          <mxGeometry x="300" y="20" width="120" height="80" as="geometry" />
        </mxCell>
        <mxCell id="T2vWgiH1zTQjgsDbBocM-5" value="" style="rounded=1;whiteSpace=wrap;html=1;" parent="1" vertex="1">
          <mxGeometry x="300" y="280" width="120" height="60" as="geometry" />
        </mxCell>
      </root>
    </mxGraphModel>
  </diagram>
  <diagram name="第 1 页 的副本" id="37dh3-CFEDQU3hhyyzaD">
    <mxGraphModel grid="1" page="1" gridSize="10" guides="1" tooltips="1" connect="1" arrows="1" fold="1" pageScale="1" pageWidth="827" pageHeight="1169" math="0" shadow="0">
      <root>
        <mxCell id="n5QE3SySR4oXq-jYOkC_-0" />
        <mxCell id="n5QE3SySR4oXq-jYOkC_-1" parent="n5QE3SySR4oXq-jYOkC_-0" />
        <mxCell id="n5QE3SySR4oXq-jYOkC_-2" value="" style="edgeStyle=orthogonalEdgeStyle;rounded=0;orthogonalLoop=1;jettySize=auto;html=1;" edge="1" parent="n5QE3SySR4oXq-jYOkC_-1" source="n5QE3SySR4oXq-jYOkC_-3" target="n5QE3SySR4oXq-jYOkC_-6">
          <mxGeometry relative="1" as="geometry" />
        </mxCell>
        <mxCell id="n5QE3SySR4oXq-jYOkC_-3" value="" style="rounded=1;whiteSpace=wrap;html=1;" vertex="1" parent="n5QE3SySR4oXq-jYOkC_-1">
          <mxGeometry x="300" y="160" width="120" height="60" as="geometry" />
        </mxCell>
        <mxCell id="n5QE3SySR4oXq-jYOkC_-4" value="" style="edgeStyle=orthogonalEdgeStyle;rounded=0;orthogonalLoop=1;jettySize=auto;html=1;" edge="1" parent="n5QE3SySR4oXq-jYOkC_-1" source="n5QE3SySR4oXq-jYOkC_-5" target="n5QE3SySR4oXq-jYOkC_-3">
          <mxGeometry relative="1" as="geometry" />
        </mxCell>
        <mxCell id="n5QE3SySR4oXq-jYOkC_-5" value="" style="ellipse;whiteSpace=wrap;html=1;" vertex="1" parent="n5QE3SySR4oXq-jYOkC_-1">
          <mxGeometry x="300" y="20" width="120" height="80" as="geometry" />
        </mxCell>
        <mxCell id="n5QE3SySR4oXq-jYOkC_-6" value="" style="rounded=1;whiteSpace=wrap;html=1;" vertex="1" parent="n5QE3SySR4oXq-jYOkC_-1">
          <mxGeometry x="300" y="280" width="120" height="60" as="geometry" />
        </mxCell>
      </root>
    </mxGraphModel>
  </diagram>
  <diagram id="T2rvvVp8aj3TTh9wGezS" name="第 3 页">
    <mxGraphModel grid="1" page="1" gridSize="10" guides="1" tooltips="1" connect="1" arrows="1" fold="1" pageScale="1" pageWidth="827" pageHeight="1169" math="0" shadow="0">
      <root>
        <mxCell id="0" />
        <mxCell id="1" parent="0" />
      </root>
    </mxGraphModel>
  </diagram>
</mxfile>
